<svg width="24" height="24" viewBox="0 0 24 24" fill="none" xmlns="http://www.w3.org/2000/svg">
<path d="M1.56104 6.85089H12.4011L12.6613 2.16797L22.0271 11.7073L18.2114 16.13L12.0542 22.2872L11.7941 17.4308H1.8212L1.56104 6.85089Z" fill="#FF6B6B"/>
<path d="M23.6095 11.0572L12.9428 0.390532C12.7563 0.204059 12.5188 0.0770692 12.2601 0.025621C12.0015 -0.0258271 11.7334 0.00057729 11.4897 0.101495C11.2461 0.202413 11.0379 0.373312 10.8914 0.59258C10.7448 0.811848 10.6667 1.06964 10.6667 1.33335V5.33334H2.22222C1.63305 5.334 1.0682 5.56834 0.651597 5.98494C0.234992 6.40155 0.000655533 6.9664 0 7.55556V16.4444C0.000655533 17.0336 0.234992 17.5985 0.651597 18.0151C1.0682 18.4317 1.63305 18.666 2.22222 18.6667H10.6667V22.6667C10.6667 22.9304 10.7449 23.1882 10.8914 23.4074C11.0379 23.6267 11.2461 23.7976 11.4897 23.8985C11.7334 23.9994 12.0015 24.0258 12.2601 23.9744C12.5188 23.9229 12.7563 23.7959 12.9428 23.6095L23.6095 12.9428C23.7333 12.819 23.8315 12.672 23.8985 12.5103C23.9655 12.3485 24 12.1751 24 12C24 11.8249 23.9655 11.6515 23.8985 11.4898C23.8315 11.328 23.7333 11.181 23.6095 11.0572ZM13.3333 19.4477V17.3333C13.3333 16.9797 13.1928 16.6406 12.9428 16.3905C12.6927 16.1405 12.3536 16 12 16H2.66666V8.00001H12C12.3536 7.99999 12.6927 7.85951 12.9428 7.60947C13.1928 7.35942 13.3333 7.02029 13.3333 6.66668V4.55231L20.781 12L13.3333 19.4477Z" fill="#FF6B6B"/>
</svg>